<?xml version="1.0" encoding="utf-8"?>
<!-- Generator: Adobe Illustrator 23.1.0, SVG Export Plug-In . SVG Version: 6.00 Build 0)  -->
<svg version="1.1" id="Layer_1" xmlns="http://www.w3.org/2000/svg" xmlns:xlink="http://www.w3.org/1999/xlink" x="0px" y="0px"
	 viewBox="0 0 283 102.1" style="enable-background:new 0 0 283 102.1;" xml:space="preserve">
<style type="text/css">
	.st0{fill:#0054A4;}
	.st1{fill:none;}
	.st2{fill:none;stroke:#2A9DD8;stroke-width:1.6284;stroke-miterlimit:10;}
</style>
<g>
	<polyline class="st0" points="24.4,30.1 17.8,27 17.3,28 24,31.1 24.4,30.1 	"/>
	<path class="st0" d="M24.4,19.8c-0.4,0-1-0.1-1.7,0.2c-0.9,0.3-1.5,1-1.8,1.5c-1.2,1.7-0.8,4.1,1,5.3c1.7,1.1,4.1,0.7,5.3-1
		c0.7-0.9,1-2.4,0.2-3.8L26.7,23c0.2,0.8,0.1,1.6-0.3,2.2c-0.8,1.2-2.6,1.5-3.9,0.6c-1.3-0.9-1.7-2.6-0.8-3.8c0.6-1,1.7-1.1,2-1.1
		L24.4,19.8"/>
	<path class="st0" d="M33.7,18l-5.2-2.3v1.1l1.3,0.7l-1.3,1.3v2.6l0.6,1.3l0.8-0.8l-0.9-2.1l1.9-1.9l2.1,1L33.7,18 M28.5,15.7
		l-2-0.9l-0.7,0.7l2.7,5.9v-2.6l-1.3-2.7l1.3,0.6L28.5,15.7L28.5,15.7z"/>
	<path class="st0" d="M37.9,10.2c-0.8-1-1.9-1.5-3.1-1.5v1c0.9,0,1.7,0.5,2.2,1.2c0.7,0.9,1,2.7-0.5,3.9c-0.6,0.4-1.2,0.6-1.7,0.6v1
		c0.8,0,1.6-0.2,2.3-0.8c1-0.7,1.5-1.8,1.5-2.9v-0.3C38.6,11.6,38.3,10.8,37.9,10.2 M34.8,8.7c-0.8,0-1.6,0.2-2.3,0.8
		c-1,0.7-1.5,1.8-1.5,2.8v0.4c0,0.7,0.3,1.5,0.8,2.1c0.7,1,1.9,1.5,3,1.5v-1c-0.9-0.1-1.7-0.6-2.2-1.2c-0.7-0.9-1-2.8,0.5-3.9
		c0.5-0.4,1.1-0.6,1.7-0.6L34.8,8.7L34.8,8.7z"/>
	<path class="st0" d="M42.7,9.1c-0.1,0.1-0.2,0.1-0.4,0.1v0.6c0.2,0,0.4,0,0.6-0.1c0.7-0.3,1-1.2,0.7-1.9c-0.2-0.5-0.7-0.8-1.3-0.8
		v0.6c0.3,0,0.6,0.2,0.7,0.5C43.3,8.4,43.1,8.9,42.7,9.1 M42.3,9.1c-0.3,0-0.6-0.2-0.7-0.5c-0.2-0.4,0-0.9,0.4-1.1
		c0.1-0.1,0.2-0.1,0.4-0.1V6.9c-0.2,0-0.4,0.1-0.6,0.1c-0.7,0.4-1,1.2-0.7,1.9c0.2,0.5,0.7,0.8,1.3,0.8C42.3,9.7,42.3,9.1,42.3,9.1z
		"/>
	<path class="st0" d="M54.4,4.1c-0.4-1.7-2-2.8-3.7-2.8v1c1.4,0,2.4,1.1,2.7,2.1c0.3,1.1-0.1,2.9-1.9,3.4c-0.3,0.1-0.5,0.1-0.7,0.1
		v1c0.3,0,0.7,0,1-0.1c1.7-0.4,2.8-2,2.8-3.6V4.9C54.5,4.6,54.4,4.3,54.4,4.1 M50.7,1.2c-0.3,0-0.7,0.1-1,0.1
		C48,1.8,47,3.3,46.9,4.9v0.4c0,0.3,0.1,0.5,0.1,0.8c0.4,1.6,1.9,2.8,3.7,2.8v-1c-1.4,0-2.4-1.1-2.7-2.1c-0.3-1.1,0.1-2.9,1.9-3.4
		c0.3-0.1,0.5-0.1,0.7-0.1C50.7,2.2,50.7,1.2,50.7,1.2z"/>
	<path class="st0" d="M62.4,7.2L59.1,0l-0.2,0v1.8l0.9,2.3l-0.9,0.1v1l1.4-0.1l1,2.1L62.4,7.2 M58.9,0.1l-0.8,0l-2.3,7.5L57,7.6
		l0.7-2.2l1.2-0.1v-1L58,4.3l0.7-2.9h0l0.2,0.4L58.9,0.1L58.9,0.1z"/>
	<path class="st0" d="M70.5,2.3c-0.2-0.4-0.4-0.9-1-1.4C68.7,0.3,67.9,0,67.3,0c-2.1-0.1-3.9,1.4-4,3.5c-0.2,2.1,1.4,4,3.5,4.1
		c1.1,0.1,2.5-0.4,3.5-1.7l-1.3-0.1c-0.5,0.6-1.3,0.9-2.1,0.8c-1.4-0.1-2.6-1.5-2.5-3c0.1-1.5,1.4-2.7,2.9-2.6
		c1.2,0.1,1.8,0.9,2,1.1L70.5,2.3"/>
	<polyline class="st0" points="72.4,8.4 74,1.3 73,1 71.3,8.2 72.4,8.4 	"/>
	<path class="st0" d="M78.3,5.8c0.1,0,0.2,0,0.3,0C79,6,79.2,6.5,79,6.9c-0.1,0.3-0.5,0.5-0.8,0.6v0.6c0.6,0,1.1-0.4,1.3-0.9
		c0.3-0.7-0.1-1.6-0.8-1.8c-0.2-0.1-0.4-0.1-0.5-0.1L78.3,5.8 M78,7.4c-0.4-0.1-0.6-0.7-0.5-1.1C77.7,6,78,5.8,78.3,5.8V5.2
		c-0.6,0-1.1,0.3-1.3,0.9C76.7,6.9,77,7.7,77.8,8c0.2,0.1,0.4,0.1,0.5,0.1V7.5C78.2,7.5,78.1,7.4,78,7.4z"/>
	<polyline class="st0" points="81.7,11.7 85.5,5.4 86.4,6 83.6,10.8 89.5,7.8 90.5,8.4 86.7,14.7 85.8,14.2 88.7,9.3 88.7,9.3 
		82.7,12.3 81.7,11.7 	"/>
	<polyline class="st0" points="92.3,19.2 92.5,14.5 97,13.6 96,12.7 91.6,13.7 91.5,13.7 93.9,10.9 93.1,10.3 88.3,15.9 89.2,16.6 
		91.5,13.7 91.6,13.7 91.3,18.4 92.3,19.2 	"/>
	<path class="st0" d="M97.8,22.6l2.7-5.2l-0.6-0.7l-2,0.8v1.1l1.3-0.6h0l-1.4,2.4V22.6 M96.9,24.4l0.9-1.7v-2.3l-0.1,0.2l-1.3-1.4
		l1.4-0.6v-1.1l-5.3,2l0.7,0.9l2.2-0.9l1.8,2l-1.1,2L96.9,24.4z"/>
	<path class="st0" d="M104.2,29.4c1.2-0.7,1.8-1.9,1.9-3.1V26c0-0.6-0.2-1.3-0.6-1.9c-0.7-1.2-2-1.8-3.3-1.8v1
		c0.9,0,1.8,0.3,2.4,1.3c0.9,1.5,0.1,3.1-1,3.8c-0.4,0.2-0.9,0.4-1.4,0.4v1.1C102.9,29.9,103.6,29.8,104.2,29.4 M102.2,22.3
		c-0.7,0-1.4,0.2-2,0.5c-1.1,0.7-1.8,1.8-1.8,3.1v0.4c0,0.6,0.2,1.2,0.5,1.8c0.7,1.2,2,1.9,3.3,1.9v-1.1c-0.9,0-1.8-0.3-2.4-1.3
		c-1-1.6,0-3.2,1-3.8c0.4-0.2,0.9-0.4,1.4-0.4L102.2,22.3L102.2,22.3z"/>
	<path class="st0" d="M19.4,70.2l3.3-1.7l-2.1-4l-1.2,0.6v-0.9l1.6-0.8l2.7,5.5l-4.3,2.1L19.4,70.2 M16.1,66.8l1.9,4.1l1.4-0.7v0.9
		l-2.2,1.1l-0.3-0.6l0.4-0.4l-2-4.1l-0.5,0.1l-0.4-0.7l4.9-2.4v0.9L16.1,66.8z"/>
	<polyline class="st0" points="16.6,66.9 17.1,66.5 17.9,68 18.9,67.6 18.4,66.3 19,66 19.6,67.1 20.3,66.9 19.6,65.5 20.3,65.2 
		22,68.5 21.4,68.9 20.7,67.7 20,67.9 20.5,69 20.1,69.4 19.2,68.4 18.4,68.7 18.9,70 18.9,70.4 18.4,70.5 16.6,66.9 	"/>
	<polyline class="st0" points="18.8,69 18.8,69.3 19.2,69.5 19.6,68.9 19.4,68.7 19.1,68.7 18.8,69 	"/>
	<path class="st0" d="M18.5,75.1l0.1-0.4c0,0,4.9-3.9,5-4c0.1-0.1,0.4-0.2,0.6,0.1c0.2,0.3,1.5,1.9,1.5,1.9s-1.9,0.6-2.3,0.8
		c-0.3,0.1-0.4,0.2-0.5,0.5c-0.1,0.3-0.3,0.7-0.9,1.1c-0.6,0.4-0.8,0.6-1.2,0.4c-0.4-0.2-0.5-0.5-0.5-0.5l0.4-0.7
		c0,0,0.2,0.4,0.5,0.5c0.3,0,0.6-0.1,0.7-0.2c0.1-0.1,0.1-0.5,0.3-0.8c0.1-0.3,0-0.6,0.5-0.7c0.5-0.2,1.7-0.7,1.7-0.7l-0.6-0.8
		L19,75.4L18.5,75.1"/>
	<path class="st0" d="M20.3,75.8c0,0,2,0,2.4-0.6c0.3,0.4,0.4,0.7,0.4,0.7l-0.3,0.3l-2.5,0.4L20.3,75.8"/>
	<path class="st0" d="M21,76.9c0,0,0.3,0.2,0.4,0.4c0.1,0.2,0.5,0,0.7-0.2c0.2-0.2,2.1-1.6,2.1-1.6l-1-1.3l0.5-0.5
		c0,0,2.6,3,2.7,3.2c0.1,0.2,0.2,0.4,0.1,0.6c-0.1,0.2-0.1,0.2-0.1,0.2L26,77.5l-1.2-1.4c0,0-2.3,1.9-2.6,2.2
		c-0.4,0.2-0.7,0.2-0.9,0c-0.2-0.2-0.6-0.7-0.6-0.7L21,76.9"/>
	<polyline class="st0" points="23.8,77 23,79.5 23.8,79.7 24.5,77.3 23.8,77 	"/>
	<polyline class="st0" points="25.1,73.5 25.4,72.9 25.6,72.9 27.8,75.4 27.7,75.7 27.3,75.9 26.9,75.8 25.1,73.5 	"/>
	<polyline class="st0" points="37.6,85.1 37.6,86.1 38.3,86.2 38.3,85.1 37.6,85.1 	"/>
	<path class="st0" d="M34.4,86.6L34.4,86.6c0.7-1.2,0.9-1.4,0.7-1.8c-0.3-0.2-0.6-0.3-0.6-0.3s-0.1,0.1-0.2,0.3v-1.3
		c0.1,0.1,0.3,0.2,0.5,0.3l0.4-0.5l0.6,0.4l-0.3,0.5c0.1,0.1,0.2,0.1,0.3,0.2c0.2,0.1,0.4,0.4,0.3,0.7c0.5,0.4,2.7,1.8,3,1.9
		c0.3,0.2,0.4,0.3,0.2,0.5c-0.2,0.3-0.3,0.4-0.5,0.2c-0.2-0.1-2.5-1.6-3.1-2l-1.3,2V86.6 M34.4,90.1c0-0.1,0.1-0.1,0.2-0.1
		c0.8-0.6,1.4-1.7,1.6-2c0.2-0.2,0.3-0.1,0.4,0.1c0.1,0.1,0.2,0.2,0.1,0.4c-0.1,0.2-1,1.4-1.5,2.1c-0.4,0.6-0.1,1.2,0.5,1.6
		c0.7,0.4,1.2-0.4,1.2-0.4l-0.6-0.6c0,0,0,0.1-0.2,0.1c-0.2,0.2-0.4-0.1-0.2-0.4c0.2-0.3,1.3-2,1.5-2.4c0.2-0.4,0.1-0.7,0.1-0.7
		L36,86.8c0,0-1.2,1.8-1.5,2.3L34.4,90.1L34.4,90.1z M33.6,86c0.3,0.2,0.6,0.4,0.8,0.6v1.3l-1.1,1.5l0.1,0.4c0,0,0.6-0.4,0.9-0.6
		c0,0,0.1-0.1,0.1-0.1v1c-0.7,0.5-0.8,0.7-0.8,0.7l-0.4-0.2L33,89.9l-0.3,0L32,89.7l0-0.7l0.7,0c0,0,0.7-0.8,1.3-1.7
		c-0.2-0.1-0.5-0.4-0.8-0.6l-0.2,0.2c-0.6,0.9-1.4,1.7-2.1,2.2c-0.4-0.5-0.5-0.7-0.5-0.7s1.1-0.8,2.2-2.1l-0.1-0.1
		C32.2,86,32,86,32.2,85.6c0.2-0.4,0.2-0.4,0.4-0.3c0.1,0,0.2,0.2,0.4,0.3c0.1-0.2,0.2-0.4,0.4-0.6c0.7-1.3,0.9-1.6,0.9-1.6
		s0.1,0,0.1,0.1v1.3C34.2,85.1,33.9,85.6,33.6,86z"/>
	<path class="st0" d="M34.6,85l0.3,0.2c0,0,0,0.2-0.1,0.3c-0.1,0.1-0.3,0.4-0.3,0.4L34,85.7L34.6,85"/>
	<polyline class="st0" points="33.1,87.1 33.6,87.1 33.4,88.2 32.6,88.2 33.1,87.1 	"/>
	<path class="st0" d="M43.4,88.8L42.8,88c0,0-0.9,1.1-1.3,1.2c-0.4,0.2-0.6,0.2-0.6,0.2l-0.4,0.3l0,0.7l1,0.4c0,0-0.4,0.5-1,0.6
		c-0.5,0.1-0.7,0.1-0.9,0.5c-0.2,0.4-0.1,0.4,0.2,0.6c0.3,0.2,1.3,0.6,1.7,0.6c0.4,0.1,1-0.2,0.6-0.5c-0.4-0.2-0.6-0.3-0.8-0.4
		c-0.2-0.1-0.3-0.4,0-0.5c0.4-0.1,2.4-1.4,2.4-1.4l-0.5-0.6l-1.1,0.6l-0.7-0.5L43.4,88.8"/>
	<path class="st0" d="M38.9,93c0,0,1.1,0.5,1.6,0.6c0.5,0.1,1,0,1,0l-0.1,0.7c0,0-0.1,0-0.3,0c-0.3,0-0.7-0.1-0.9-0.1
		C39.9,94,39.4,94,39.1,94c-0.2,0-0.3-0.1-0.3-0.1L38.9,93"/>
	<path class="st0" d="M45.3,91.7l0.6,0.2l0.5-1.2l-1-0.4v-0.8l2.1,0.9L45.3,95v-2l0.2-0.4l-0.2-0.1V91.7 M45.3,96.8v-0.4
		C45.4,96.5,45.4,96.7,45.3,96.8z M44.3,91.3l1,0.4v0.7L44,92l-0.3,0.7v-1.9l0.7-1.6l1,0.4v0.8l-0.5-0.2L44.3,91.3z M45.3,93v2
		l-0.6,1.1c0.3,0.1,0.4,0.2,0.4,0.2c0.1,0,0.1,0,0.1,0.1v0.4c0,0,0,0,0,0c-0.1,0.1-0.3,0.2-0.6,0.1c-0.1,0-0.5-0.2-1-0.5v-0.9
		c0.2,0.1,0.4,0.1,0.4,0.1l0.6-1.2l-1-0.4v-0.8l1.2,0.6L45.3,93z M43.7,90.8v1.9l-0.2,0.4l0.2,0.1V94l-0.6-0.3l-0.4,1.1
		c0,0,0.4,0.5,0.8,0.7c0.1,0,0.2,0.1,0.3,0.1v0.9c-1.2-0.6-3-1.5-3-1.5l0.4-0.6l0.8,0.4L43.7,90.8z"/>
	<path class="st0" d="M50.5,91.2c0,0-0.6,1.3-0.6,1.4c-0.1,0.2-0.7,0.4-0.9,0.6c-0.2,0.1-0.5,0.3-0.4,0.5c0.1,0.2,0.2,0.5,0.2,0.5
		s0.7,0,1,0c0.3,0,0.3,0.1,0.2,0.3c-0.2,0.2-1.1,0.6-1.3,0.7c-0.2,0.1-0.4,0.1-0.3,0.6c0.1,0.4,0.2,0.4,0.8,0.4c0.6,0.1,2,0.1,2,0.1
		l0-0.6c0,0-0.6-0.1-0.9-0.1c-0.3-0.1-0.5-0.2-0.1-0.4c0.4-0.3,1.4-1.2,1.6-1.4c0.2-0.2,0.2-0.3,0.2-0.3s-0.2-0.5-0.7-0.6
		c-0.3,0.5-0.4,0.8-0.4,0.8s-0.4,0.1-0.8-0.1c-0.4-0.2-0.2-0.4,0-0.6c0.2-0.1,1.3-1.1,1.3-1.1L50.5,91.2"/>
	<path class="st0" d="M53.6,95.7l0.6,0.2l0.5-2.4l-1.1-0.3v-0.8l2.1,0.5l-1,3.6l-1.1-0.2L53.6,95.7 M53.1,93.1l-0.5,2.3l1.1,0.3v0.7
		l-2.1-0.4l1-3.8l1.1,0.3v0.8L53.1,93.1z"/>
	<polyline class="st0" points="52.9,97.2 53.8,97 54.6,99 53.7,99.4 52.9,97.2 	"/>
	<path class="st0" d="M52.6,97.3l-1.9,1.5l-0.5-0.6c0,0,0.1-0.1,0.2-0.2c0.1-0.1,0.1-0.3-0.2-0.3c-0.3,0-2.5,0.1-2.5,0.1v-1
		c0,0,1.8,0.3,2.2,0.3c0.4,0,0.9-0.1,0.9-0.1s0,0.2,0.1,0.4c0.1,0.1,0.1,0.3,0.6-0.1c0.4-0.4,0.6-0.6,0.6-0.6L52.6,97.3"/>
	<path class="st0" d="M62.3,97.6c0.4,0,0.7-0.3,0.7-0.7c0-0.4-0.3-0.7-0.7-0.7v-0.4c0.6,0,1.1,0.5,1.1,1.1c0,0.6-0.5,1.1-1.1,1.1
		V97.6 M61.6,96.9c0,0.4,0.3,0.7,0.7,0.7V98c-0.6,0-1.1-0.5-1.1-1.1c0-0.6,0.5-1.1,1.1-1.1v0.4C61.9,96.2,61.6,96.5,61.6,96.9z"/>
	<path class="st0" d="M70.9,98.8c0.3,0,0.6-0.1,0.9-0.4c-0.3-0.8-0.6-1-0.9-1.1V96c1.2,0.1,2.4,2.1,2.4,3.8c0,1.7-1.9,2.4-2.3,2.4
		c0,0,0,0-0.1,0v-0.6c0.2-0.1,0.5-0.2,0.6-0.3c0.5-0.3,0.7-0.7,0.7-1.2c0-0.4-0.2-0.9-0.2-0.9s-0.5,0.2-1.2,0.4L70.9,98.8 M70,98.7
		c0,0,0.4,0.1,0.9,0v0.8c-0.5,0.1-1.1,0.2-1.6,0.1c-0.1-0.2-0.1-0.5-0.1-0.7v-0.4c0.1-1.3,0.7-2.6,1.6-2.6c0,0,0.1,0,0.1,0v1.4
		c0,0-0.1,0-0.1,0C70,97.2,70,98.7,70,98.7z M70.9,101.5v0.6c-0.4,0-1.1-0.3-1.3-0.3c-0.2-0.1-0.1-0.3,0.2-0.2
		C70.1,101.7,70.5,101.6,70.9,101.5z"/>
	<path class="st0" d="M72.8,93l0.4-0.4l4,5.3c0,0,4.3-1.3,7.7-3.1c3.4-1.7,7-3.8,10.7-7.2c3.6-3.5,6.2-6.6,9-11.1
		c-1-1.4-2.7-3.4-2.7-3.4l-1.4,1.7l0.3,0.5l1-0.7l1.4,1.4c0,0-1.8,3.2-3.7,5.4c-1.8,2.2-6.1,6.9-10.8,9.7c-4.7,2.8-7.5,4.2-11.1,5.2
		c-2.2-2.7-4.1-5.4-4.1-5.4l-1.1,1.7L72.8,93"/>
	<path class="st0" d="M98.9,78l-3.8,3.9c0,0-0.7-0.7-0.9-4.4c0-0.3-0.3-0.7-0.3-0.1c0,0.6-0.4,6-0.4,6l1.2,0.4l4.1-4.2l1.2,0.9
		l0.9-0.8L98.9,78"/>
	<path class="st0" d="M103.2,80.4c0-0.4,0.4-0.8,0.8-0.8c0.4,0,0.8,0.4,0.8,0.8c0,0.5-0.4,0.8-0.8,0.8
		C103.6,81.3,103.2,80.9,103.2,80.4"/>
	<path class="st0" d="M104.7,78.5c0-0.4,0.4-0.8,0.8-0.8c0.4,0,0.8,0.4,0.8,0.8c0,0.5-0.4,0.8-0.8,0.8
		C105.1,79.3,104.7,79,104.7,78.5"/>
	<path class="st0" d="M106.2,73.5C106.2,73.5,106.2,73.5,106.2,73.5S106.2,73.5,106.2,73.5"/>
	<path class="st0" d="M100.6,68.5c0,0,0.6-1.3,0.8-1.7c1,0.9,5.4,5.5,5.4,5.5l-0.6,1.1l-4.6-4.8l-0.5,0.4L100.6,68.5"/>
	<path class="st0" d="M62.3,67.3c11.1,0,20.2-8.9,20.3-20c-0.2-0.1-0.3-0.3-0.5-0.5H67.2c0-0.2,0-0.5-0.1-0.7h13.9
		c-0.8-0.5-1.6-0.9-2.6-1.2l0.2-0.4c1.2-2,2.3-3.7,2.8-4.4c-2.8-7.9-10.3-13.5-19.2-13.5V26c9.2,0,16.9,5.8,19.8,13.9h5.5
		c-3.1-11-13.2-19.2-25.3-19.2V20c12.5,0,23,8.5,26.1,19.9h34.9c0.6,0,0.3-0.6,1,0c0.3,0.2,0.3,0.4,0.3,0.6v0.1c0,0.4-0.4,0.7-0.7,1
		c-1,1.1-3.7,3.9-3.7,3.9H83.1c-0.7-0.5-1.5-1-2.5-1.5l1.8-2.9h40.5c0.4,0,0.7-0.2,0.8-0.4c0.1-0.3-0.3-0.2-0.4-0.2H82
		c-0.3,0.4-1.3,2-2.5,4c8.9,3.4,6.7,12.3,4,16.5c-4.5,6.9-12.3,11.4-21.1,11.4v-0.7c8.6,0,16.2-4.4,20.6-11.1
		c2.7-4.1,3.3-9.1,0.4-12.6c-0.6,11.1-9.8,19.9-21,20L62.3,67.3 M42.5,46.9c-0.2,0.1-0.4,0.3-0.5,0.5c0.2,11.1,9.2,20,20.3,20v0.8
		c-11.2,0-20.4-8.9-21-20c-2.9,3.5-2.3,8.5,0.4,12.6c4.4,6.7,12,11.1,20.6,11.1v0.7c-8.8,0-16.6-4.5-21.1-11.4
		c-2.8-4.2-4.9-13.1,4-16.5c-1.2-2-2.3-3.6-2.6-4H1.4c-0.2,0-0.5-0.1-0.4,0.2C1,41,1.3,41.2,1.8,41.2h40.5l1.8,2.9
		c-0.9,0.4-1.8,0.9-2.5,1.5H4.4c0,0-2.7-2.8-3.7-3.9c-0.3-0.3-0.6-0.6-0.7-1c0,0,0,0,0,0c0-0.2,0.1-0.4,0.4-0.6c0.7-0.6,0.4,0,1,0
		h34.9C39.4,28.5,49.8,20,62.3,20v0.7c-12.1,0-22.2,8.2-25.3,19.2h5.4C45.4,31.8,53.2,26,62.3,26v0.7c-8.8,0-16.4,5.7-19.1,13.5
		c0.5,0.7,1.5,2.4,2.8,4.4l0.2,0.4c-0.9,0.3-1.8,0.7-2.6,1.2h13.9c-0.1,0.2-0.1,0.5-0.1,0.7H42.5z"/>
	<path class="st0" d="M62.7,52v22h-0.8V52c0.1,0,0.3,0,0.4,0C62.4,52,62.6,52,62.7,52 M66.1,50.1l15.2,15.2l-0.5,0.5L65.6,50.7
		C65.8,50.5,66,50.3,66.1,50.1z M65.5,43.2l15.2-15.1l0.5,0.5L66,43.7C65.9,43.6,65.7,43.4,65.5,43.2z M61.9,42.1v-22h0.8v22
		c-0.1,0-0.3,0-0.4,0C62.2,42.1,62.1,42.1,61.9,42.1z M58.6,43.7L43.5,28.6l0.5-0.5l15.2,15.1C59,43.4,58.8,43.5,58.6,43.7z
		 M43.2,65.5l15.4-15.4c0.2,0.2,0.3,0.4,0.5,0.5L43.7,66.1L43.2,65.5z"/>
	<path class="st0" d="M71.7,83.3c0,0-4.6-5.2-9.7-6.5c-4.6-1.2-6.6-1.7-10.9-0.8c-4.2,0.9-8.1,2.3-11.7,1c-0.3-0.1-0.6-0.1-0.3,0.3
		c0.3,0.3,0.7,0.8,1.4,1.3c0.7,0.5,2.9,1.2,5.1,1.5c2.3,0.3,3.4,0.4,6.7-0.7c3.3-1.1,4.7-2,7.9-2c3.5,0,4,0.9,9.9,6.3
		C71.1,83.5,71.7,83.3,71.7,83.3"/>
	<path class="st0" d="M48.1,75.6c-0.5,0-1.9,0.2-3.1,0.6c-1.3,0.4-2.4,0.4-4,0.1c-1.6-0.2-3.7-0.3-5.3-2.1c-1.7-1.7-3.5-4.1-3.8-4.5
		c-0.2-0.4-0.1-0.5,0.3-0.1c0.4,0.4,1.6,1.5,4.5,2.1c2.8,0.5,4.3,1,6.7,2.3c1.1,0.6,2.6,1.1,4.1,0.9c-1.5-0.9-1.8-0.8-2.8-1.4
		c-1-0.7-1.9-1.5-2.7-2.8c-0.8-1.3-1.2-2.8-1.2-3.5c-0.1-0.7,0.1-1.1-0.1-1.4c-0.1-0.3-0.1-0.6,0.2-0.2c0.3,0.4,1.1,1.3,2.1,2.1
		c1,0.8,1.9,1.6,2.8,3.2c0.8,1.6,0.9,2.3,2.2,3.4c1.4,1.1,1.6,1.2,0.9,1.2C48.5,75.6,48.6,75.6,48.1,75.6"/>
	<path class="st0" d="M37.9,51.8H11.1c0,0-2.7-2.8-3.7-3.9c-0.4-0.5-1.1-1-0.3-1.7c0.7-0.6,0.4,0,1,0h32.7c-0.2,0.2-0.4,0.4-0.7,0.7
		H8c-0.2,0-0.5-0.1-0.4,0.2c0.1,0.3,0.4,0.5,0.8,0.5h31.2C38.7,48.8,38.1,50.3,37.9,51.8"/>
	<path class="st0" d="M40.2,71.7c-0.4-0.1-3.9-1.2-5.4-1.8c-1.5-0.6-4-1.7-5.1-4.4c-1.2-2.7-2.1-4.5-2.2-5.2c-0.1-0.7-0.1-0.8,0-0.9
		c0-0.1,0.1-0.1,0.2,0c0.1,0.1,1.9,2.9,3.3,4.1c1.3,1.1,3.1,2.1,4,3c0.9,0.9,1.9,1.8,2.7,2.7c0.8,0.9,1.4,1.1,1.4,1.1s-1.3-2-1.9-3
		c-0.7-0.9-1.3-1.8-1.3-3.2c0-1.4,0.1-3.7,0.1-4c0-0.3,0.1-0.4,0.3-0.1c0.2,0.3,1.3,1.6,2,3c0.7,1.3,1.1,2.8,1.1,3.4
		c0,0.6,0,1.5,0.1,2.1c0.2,0.6,0.7,2.5,1,3C40.8,72,40.8,72,40.2,71.7"/>
	<path class="st0" d="M28.5,58.8c0,0,1.4,1.6,2.4,2.5c1,0.9,2.9,2.5,3,2.8c0.2,0.2,0.3,0.1,0.3-0.1c0-0.3,0.1-2.2,0.2-3.1
		c0.2-0.9,0.2-2,0.2-2h-2.2c0,0,0.5,1.4,0.7,2c0.2,0.6,0.1,0.9,0.1,0.9s-0.4-0.4-0.9-1.6c-0.5-1.2-0.5-1.3-0.5-1.3L28.5,58.8"/>
	<path class="st0" d="M27.1,39.2c0,0-0.1-2,0.7-4.4c0.8-2.5,1.6-4,2.9-5.5c0.1-0.2,0.4-0.3,0.3,0.1c-0.1,0.4-0.9,1.8-0.9,5.1
		c0,3.3,0.1,1.4,0.1,4.7C28.8,39.2,27.1,39.2,27.1,39.2"/>
	<path class="st0" d="M31.3,39.2c0,0,1.7-1.6,3.5-3.3c1.7-1.7,1.9-2,2-2.3c0.1-0.3,0.4-0.4,0.3,0.1c-0.1,0.4-1,3.3-2.3,5.6
		C33.5,39.2,31.3,39.2,31.3,39.2"/>
	<path class="st0" d="M31.3,32.1c0-2.1,0.5-4.9,2.6-6.7c0.8-0.7,1.3-1.1,1.6-1.5c0.3-0.4,0.6-0.4,0.3,0.1c-0.3,0.5-1,1.7-1.5,4.1
		c-0.5,2.4-1,4.3-1.6,5.9c1.3-2.4,1.4-2.9,3.8-4.3c2.4-1.5,3.5-2.8,3.8-3.3c0.3-0.4,0.4-0.4,0.3,0.1c-0.1,0.4-1.1,3.2-3.3,5.2
		c-2.2,2-4.6,3.7-5.5,5.5c-0.2,0.3-0.4,0.6-0.4-0.1C31.5,36.5,31.3,34.5,31.3,32.1"/>
	<path class="st0" d="M34.9,28.9c0.1-0.5,0.7-3.3,2.7-4.9c2-1.7,4.4-2.7,5-3c0.6-0.3,0.6-0.1,0.3,0.2c-0.4,0.3-1.7,1.9-2.8,3.6
		c-1,1.7-1.7,2.4-2.9,2.9c-1.1,0.5-1.9,1.1-2.1,1.4C34.9,29.4,34.7,29.4,34.9,28.9"/>
	<path class="st0" d="M52.9,83.3c0,0,4.6-5.2,9.7-6.5c4.7-1.2,6.7-1.7,10.9-0.8c4.2,0.9,8.1,2.3,11.7,1c0.3-0.1,0.6-0.1,0.3,0.3
		c-0.3,0.3-0.7,0.8-1.4,1.3c-0.7,0.5-2.9,1.2-5.1,1.5c-2.3,0.3-3.4,0.4-6.7-0.7c-3.3-1.1-4.6-2-7.9-2c-3.4,0-4,0.9-9.9,6.3
		C53.5,83.5,52.9,83.3,52.9,83.3"/>
	<path class="st0" d="M76.6,75.6c0.5,0,1.9,0.2,3.1,0.6c1.2,0.4,2.4,0.4,4,0.1c1.6-0.2,3.6-0.3,5.3-2.1c1.7-1.7,3.5-4.1,3.7-4.5
		c0.2-0.4,0.1-0.5-0.3-0.1c-0.4,0.4-1.7,1.5-4.5,2.1c-2.8,0.5-4.3,1-6.7,2.3c-1.1,0.6-2.5,1.1-4.1,0.9c1.5-0.9,1.8-0.8,2.8-1.4
		c1-0.7,2-1.5,2.8-2.8c0.8-1.3,1.2-2.8,1.2-3.5c0.1-0.7,0-1.1,0.1-1.4c0.1-0.3,0.1-0.6-0.3-0.2c-0.3,0.4-1.1,1.3-2.1,2.1
		c-1,0.8-2,1.6-2.8,3.2c-0.8,1.6-0.9,2.3-2.2,3.4c-1.4,1.1-1.6,1.2-0.9,1.2C76.2,75.6,76,75.6,76.6,75.6"/>
	<path class="st0" d="M86.8,51.8h26.8c0,0,2.7-2.8,3.7-3.9c0.4-0.5,1.1-1,0.3-1.7c-0.7-0.6-0.4,0-1,0H83.9c0.2,0.2,0.4,0.4,0.7,0.7
		h32.1c0.2,0,0.5-0.1,0.4,0.2c-0.1,0.3-0.4,0.5-0.8,0.5H85C86,48.8,86.6,50.3,86.8,51.8"/>
	<path class="st0" d="M84.5,71.7c0.4-0.1,3.8-1.2,5.3-1.8c1.5-0.6,4-1.7,5.1-4.4c1.2-2.7,2.1-4.5,2.2-5.2c0.1-0.7,0.1-0.8,0-0.9
		c0-0.1-0.1-0.1-0.2,0c-0.1,0.1-1.9,2.9-3.3,4.1c-1.4,1.1-3.1,2.1-4,3c-0.9,0.9-1.9,1.8-2.7,2.7c-0.8,0.9-1.4,1.1-1.4,1.1
		s1.3-2,1.9-3c0.7-0.9,1.3-1.8,1.3-3.2c0-1.4-0.1-3.7-0.1-4c0-0.3-0.1-0.4-0.3-0.1c-0.2,0.3-1.3,1.6-2,3c-0.7,1.3-1.1,2.8-1.1,3.4
		c0,0.6,0,1.5-0.1,2.1c-0.1,0.6-0.7,2.5-1,3C83.8,72,83.9,72,84.5,71.7"/>
	<path class="st0" d="M96.1,58.8c0,0-1.4,1.6-2.4,2.5c-1,0.9-2.9,2.5-3,2.8c-0.2,0.2-0.3,0.1-0.3-0.1c0-0.3-0.1-2.2-0.2-3.1
		c-0.1-0.9-0.1-2-0.1-2h2.2c0,0-0.5,1.4-0.7,2c-0.2,0.6-0.1,0.9-0.1,0.9s0.4-0.4,0.9-1.6c0.5-1.2,0.5-1.3,0.5-1.3L96.1,58.8"/>
	<path class="st0" d="M97.5,39.2c0,0,0.1-2-0.7-4.4c-0.7-2.5-1.6-4-2.9-5.5c-0.2-0.2-0.4-0.3-0.3,0.1c0.1,0.4,0.9,1.8,0.9,5.1
		c0,3.3-0.1,1.4-0.1,4.7C95.9,39.2,97.5,39.2,97.5,39.2"/>
	<path class="st0" d="M93.4,39.2c0,0-1.8-1.6-3.5-3.3c-1.7-1.7-1.9-2-2.1-2.3c-0.1-0.3-0.4-0.4-0.3,0.1c0.1,0.4,1,3.3,2.3,5.6
		C91.1,39.2,93.4,39.2,93.4,39.2"/>
	<path class="st0" d="M93.3,32.1c0-2.1-0.5-4.9-2.6-6.7c-0.8-0.7-1.3-1.1-1.6-1.5c-0.4-0.4-0.6-0.4-0.3,0.1c0.3,0.5,1,1.7,1.5,4.1
		c0.5,2.4,1,4.3,1.6,5.9c-1.3-2.4-1.4-2.9-3.8-4.3c-2.4-1.5-3.6-2.8-3.8-3.3C84,26,83.9,26.1,84,26.5c0.1,0.4,1.1,3.2,3.3,5.2
		c2.2,2,4.6,3.7,5.5,5.5c0.2,0.3,0.4,0.6,0.4-0.1C93.2,36.5,93.3,34.5,93.3,32.1"/>
	<path class="st0" d="M89.8,28.9c-0.1-0.5-0.8-3.3-2.7-4.9c-2-1.7-4.5-2.7-5-3c-0.6-0.3-0.6-0.1-0.3,0.2c0.3,0.3,1.7,1.9,2.7,3.6
		c1.1,1.7,1.8,2.4,2.9,2.9c1.1,0.5,1.9,1.1,2.2,1.4C89.8,29.4,90,29.4,89.8,28.9"/>
	<path class="st0" d="M38,58.1H17.7c0,0-2.7-2.8-3.7-3.9c-0.3-0.3-0.6-0.6-0.7-1v-0.1c0-0.2,0.1-0.4,0.4-0.6c0.7-0.6,0.4,0,1,0h23.2
		c0,0.2,0,0.4,0,0.6H14.6c-0.1,0-0.5,0-0.4,0.2c0.1,0.3,0.4,0.5,0.8,0.5h22.8c0.1,1.4,0.4,2.8,0.9,4.2l0,0.1
		c0.5,1.3,1.1,2.5,1.7,3.5c4.7,7.1,12.7,11.8,21.8,11.8v0.7c-9.4,0-17.6-4.8-22.5-12.1C39.1,60.9,38.5,59.6,38,58.1 M111.4,53.1
		c0-0.2-0.1-0.4-0.4-0.6c-0.7-0.6-0.4,0-1,0H86.8c0,0.2,0,0.4,0,0.6H110c0.2,0,0.5,0,0.4,0.2c-0.1,0.3-0.4,0.5-0.8,0.5H86.8
		c-0.1,1.4-0.4,2.8-0.9,4.3v0c-0.5,1.3-1.1,2.5-1.7,3.5c-4.7,7.1-12.7,11.8-21.9,11.8v0.7c9.4,0,17.6-4.8,22.5-12.1
		c0.7-1.1,1.4-2.4,1.9-3.9H107c0,0,2.7-2.8,3.7-3.9C111,53.8,111.3,53.5,111.4,53.1L111.4,53.1L111.4,53.1z"/>
	<path class="st0" d="M81.7,38.4c-0.3-0.4,0-0.8,0.4-1c0.5-0.3-0.5-0.6-0.5-1c-0.3,0-0.5-0.1-0.6-0.4c-0.1-0.3,0.3-0.6,0-0.7
		c-0.2-0.1-0.4-0.1-0.5-0.3c-0.2-0.2-0.1-0.6-0.2-0.7c-0.4-0.4-1.5-0.7-1.5-1.4c0.1,0.1,0.2,0.2,0.4,0c-0.4-0.1-0.2-0.7-0.6-0.6
		c-0.1,0-0.2,0-0.3,0c0.1-0.2-0.3-0.3-0.2-0.6c-0.1,0-0.2,0-0.4,0.1c-0.1-0.4-0.1-0.6-0.4-0.9c-0.2-0.2-0.1-0.6-0.1-0.9
		c-0.1,0.2-0.4,0.1-0.4,0.1c-0.4-0.4-0.8-0.9-1-1.3c-0.1-0.3-0.3-0.6-0.4-1c0-0.1-0.1-0.3,0-0.3c0.1-0.1,0.2,0.3,0.3,0.2
		c0.1-0.6-0.7-1.6-1.3-1.2c-0.3,0.2-0.7,0.3-1.2,0.5c-0.5,0.2-1,0.3-1.6,0.3c-0.2,0-0.6,0-0.6,0.1c-0.3,0.6,0.3,1.2,0.5,1.8
		c0.2,0.4,0.2,0.9,0.6,1.4c-0.1,0-0.2,0-0.2,0.1c0,0.1,0,0.2,0,0.3c0.2,0,0.4,0.2,0.5,0.4c0.1,0.1,0,0.5,0.1,0.7
		c0.1,0.3,0.4,0.5,0.7,0.7c0.3,0.1,0.7-0.1,1-0.1c0.1,0,0.2,0.1,0.2,0.2c0.2,0.7-0.3,1.4,0.2,2c0.2,0.3,0.7,0.1,1,0.3
		c0,0.1,0,0.3,0,0.4c0.2,0.1,0.4,0,0.6,0.1c0,0,0.1,0.1,0.1,0.1c0-0.1,0-0.1,0-0.1c-0.3,0.6,0.4,0.9,0.9,1c0.1,0.1,0.1,0.4,0.2,0.5
		c0.4,0.3,1,0.1,1.4,0.3c0.1,0.1,0.1,0.5,0.2,0.7c0.1,0.2,0.3,0.4,0.5,0.3c0,0.9,1.1,0.6,1.8,0.8c0-0.4,0.5-0.6,0.3-1.1L81.7,38.4"
		/>
	<path class="st0" d="M64.7,24.2c0.4,0.1,0.3-0.5,0.6-0.5c0.2,0,0.4,0.1,0.5-0.1c0.1-0.1,0-0.2,0-0.3c-0.4,0.1-0.6-0.5-0.9-0.3
		c-0.8,0.4-1.6,0.8-2.5,0.9c0,0,0,0.1,0,0.1c0.5,0.1,1,0.2,1.5,0.4c0.2,0,0.5,0.4,0.7,0.4C64.8,24.9,65.1,24.5,64.7,24.2"/>
	<path class="st0" d="M62.6,27.2c0.2,0,0.5-0.1,0.7-0.1c-0.1,0.3,0,0.6-0.1,0.8c-0.1,0.3-0.6,0.3-0.8,0
		C62.1,27.6,62.4,27.4,62.6,27.2C62.7,27.2,62.7,27.2,62.6,27.2"/>
	<path class="st0" d="M67.1,27.1c-0.1,0.2-0.3,0.1-0.4,0.3c-0.2,0.2,0.1,0.3,0.2,0.5c0.1,0,0,0.1,0,0.2c0,0.2,0.3,0,0.2,0.3
		c0.3-0.1,0.4-0.5,0.6-0.7c0,0,0-0.1,0-0.2c-0.1-0.1-0.2,0-0.2,0c-0.2-0.2-0.4-0.7-0.7-0.4L67.1,27.1"/>
	<path class="st0" d="M77.4,39.2c-0.2-0.3-0.2-0.6,0-0.9c0,0,0.1,0,0.2,0c0,0.3,0.2,0.6,0,0.8C77.6,39.2,77.4,39.3,77.4,39.2"/>
	<path class="st0" d="M74.3,38c-0.4,0.1-0.8,0.4-0.9,0.9c-0.1,0-0.2,0.2-0.4,0.2c0,0.1,0,0.2,0,0.2c0,0.1,0.1,0.1,0.1,0.1
		c0,0.1,0,0.2,0,0.2c-0.4,0.3-0.5,0.7-0.2,0.9c0.2,0.2,0.5-0.1,0.8-0.1c-0.1-0.5,0.1-0.9,0.5-1.3c0.2-0.1,0.1-0.3,0-0.5
		c0.2-0.1,0.2-0.3,0.2-0.4C74.3,38.3,74.4,38,74.3,38c-0.1,0.1-0.1,0.1-0.1,0.2C74.3,38.1,74.3,38.1,74.3,38"/>
	<path class="st0" d="M69.3,31.7c0.7-0.1,1.3-0.1,2-0.1c0.4-0.1,0.5,0.5,0.7,0.8c0.1,0.2,0.4,0,0.5,0.2c0.6,0.8,1,1.8,1.3,2.7
		c0.2,0.4,0.7,0.8,1,1.3c0.1,0.2,0.4,0.3,0.6,0.5c0,0.1,0.1,0.2-0.1,0.3c0.1,0.1,0.3,0,0.3,0.1c0.1,0.4,0.4,0.8,0.7,1.1
		c0.2,0.1,0,0.4,0.1,0.6c0,0.1,0.1,0.1,0.1,0.2c0.1,0.2-0.1,0.4-0.1,0.6c0,0.3,0.1,0.7,0.1,1c-0.3-0.1-0.5-0.2-0.8-0.3
		c-0.1,0-0.1-0.2-0.1-0.2c-0.3-0.4-1.5-0.6-0.9-0.9c0.3-0.2,0.8-0.6,0.6-1c-0.1-0.1-0.2-0.1-0.3-0.2c-0.2-0.2,0-0.6-0.2-0.8
		c-0.2-0.3-0.5-0.3-0.8-0.6c-0.1-0.1,0-0.4-0.2-0.5c-0.6-0.4-1.2-0.7-1.6-1.2c-0.2-0.2,0.3-0.6,0.1-1c-0.2-0.3-0.6-0.5-0.8-0.9
		c-0.1-0.2,0.1-0.3,0.1-0.4c0.1-0.1,0-0.2,0-0.4c0-0.2-0.3-0.1-0.3-0.3c-0.3,0.3-0.7,0-0.9,0.1c-0.2,0.1-0.3,0.2-0.5,0.1
		c-0.3-0.2-0.5-0.5-0.4-0.8c0-0.2,0.3-0.2,0.6-0.2L69.3,31.7"/>
	<path class="st0" d="M75.9,36.3C75.9,36.3,76,36.3,75.9,36.3c0,0-0.2,0-0.2,0.1c0,0.3,0.3,0.5,0.6,0.5
		C76.3,36.7,76.2,36.3,75.9,36.3"/>
	<path class="st0" d="M76.5,37.6c-0.1,0-0.1,0-0.2,0c0,0.1,0,0.1-0.1,0.2c0.1,0.2,0.3,0.5,0.4,0.5c0.4-0.1,0.1-0.6,0.2-1
		c-0.1,0.2-0.4,0.3-0.4,0.6C76.4,37.7,76.5,37.6,76.5,37.6"/>
	<path class="st0" d="M75.9,44c0.2-0.2,0.2-0.6,0.5-0.7c0.2-0.1,0.5-0.2,0.6-0.4c0.1-0.1,0.1-0.5,0.2-0.5c0.6-0.1,0.3,0.6,0.2,0.9
		c-0.5,0.8-0.9,2.1-1.8,1.8c-0.6-0.1-0.3-1-0.4-1.7c-0.1-0.3-0.7-0.1-1-0.2c-0.3-0.1,0.2-0.5-0.5-0.6c0.6-0.1,1.3-0.4,1.7-0.1
		C75.8,42.7,75.3,43.9,75.9,44C76,44,75.9,44,75.9,44"/>
	<path class="st0" d="M77.7,43.5c-0.2,0.4,0,0.7-0.4,0.9c-0.1,0,0.1,0.3,0,0.3c-0.2,0.1-0.4,0.1-0.5,0.3c0.3,0.2,0.8,0.5,0.9,0.4
		c0.4-0.8,1-1.9,0.1-2.7c0,0.2,0.1,0.4,0,0.6c0,0.1-0.2,0.3-0.1,0.4V43.5"/>
	<path class="st0" d="M78,39.9c-0.2-0.2-0.6-0.1-0.7,0c-0.1,0.3,0.1,0.7,0.2,1c0.2,0.3-0.6,0.9-0.1,1.3c0.1,0.1,0.7-0.2,0.7-0.4
		c0-0.7,0.3-1.5,0-2.1c0-0.1-0.3-0.1-0.5,0L78,39.9"/>
	<path class="st0" d="M69.3,30.8c-0.1,0-0.2,0-0.2,0.1c0,0.3,0.3,0.2,0.4,0.4c0-0.2,0-0.4,0-0.5c-0.1-0.1-0.2,0-0.4,0
		C69.2,30.8,69.2,30.8,69.3,30.8"/>
	<path class="st0" d="M73.2,47c0,6-4.9,10.9-10.9,10.9v-0.7c5.6,0,10.2-4.6,10.2-10.1c0-5.6-4.5-10.1-10.2-10.1v-0.7
		C68.4,36.1,73.2,41,73.2,47 M62.3,57.9c-6,0-10.9-4.9-10.9-10.9c0-6,4.9-10.9,10.9-10.9v0.7c-5.6,0-10.1,4.5-10.1,10.1
		c0,5.6,4.5,10.1,10.1,10.1V57.9z"/>
	<path class="st0" d="M46.7,32.9c-0.2-0.3,0.2-0.7,0-0.9c-0.3-0.4-0.8,0.1-1,0.4c-0.2,0.4,0.5,0.4,0.8,0.4
		C46.6,32.8,46.6,32.9,46.7,32.9C46.6,32.9,46.7,32.9,46.7,32.9"/>
	<path class="st0" d="M62.5,42.1c-0.3,0-0.4-0.4-0.6-0.6c-0.3-0.1-0.6,0-0.9-0.1c-0.2-0.1-0.2-0.1-0.4-0.2c-0.1-0.1-0.2-0.1-0.4,0
		c-0.4,0.1-0.3,0.5-0.4,0.8c-0.2,0.3-0.4,0.5-0.8,0.5c-0.1,0-0.1,0.1-0.2,0.1c-0.6,0.2-1.2,0.2-1.6,0c-0.7-0.3-1.1-0.8-1.8-0.9
		c-0.7-0.1-1.4-0.1-2.1,0c-0.1,0-0.1,0.2-0.3,0.2c-0.2,0-0.3,0.1-0.5,0.2c-0.5,0.3-0.7,1.1-1.3,1.3c-0.7,0.2-1.2,1-1.1,1.7
		c-0.4-0.1-0.7,0.2-0.7,0.4c-0.2,0.4-0.4,0.8-0.5,1.2c-0.1,0.3-0.1,0.8,0,1.2c0.1,0.3-0.4,0.8-0.2,1.2c0.1,0.3,0,0.6,0.3,0.7
		c0-0.5-0.1-1.2,0.6-1.6c0.1-0.1,0-0.4,0.1-0.6c0.1-0.3,0.1-0.7,0.2-0.9c0.4-0.3,0.5-0.7,0.7-1.1c0,0,0.1,0,0.1,0
		c0.1-0.1,0.2-0.2,0.2-0.3c0.2-0.3,0.6-0.3,0.7,0c0.5,1.1-0.3,2.8,1,3.3c0.5,0.2,1,0.6,1.6,0.8c0.3,0.1,0.8,0.3,0.9,0.8
		c0.1,0.3,0.6,0.2,0.7,0.4c0.1,0.3,0.3,0.5,0.3,0.9c0.2-0.1,0.4-0.3,0.4-0.6c0.2,0.2,0.1,0.6,0.3,0.9c0-0.7,0.6-1.3,1-1.7
		c0.1-0.1,0.4-0.1,0.5-0.3c0.1-0.2,0.1-0.5,0.2-0.6c0.3-0.3,0.6-0.5,0.9-0.8c0.3-0.2,0.3-0.6,0.6-0.8c-0.3,0.1-0.9,0.1-0.7-0.2
		c0.4-0.6,0.9-0.6,1.4-1.1c0-0.1-0.1-0.5-0.1-0.6c-0.4,0.1-0.9,0.3-1.3,0.1c-0.2-0.1,0-0.3,0.1-0.4c0.3-0.6,0.7-1,1.1-1.3
		c0.2-0.2,0.8-0.2,1.2-0.4c0.4-0.2,0.2-0.7,0.4-1.1C62.3,42.4,62.3,42.1,62.5,42.1"/>
	<path class="st0" d="M52.1,48.2c-0.2,0-0.4,0.2-0.5,0.3c-0.2,0.1-0.4,0-0.6-0.1c-0.1,0.3,0.1,0.5,0.1,0.8c-0.1,0.3-0.5,0.4-0.4,0.5
		c0.2,0.3,0.3,0.7,0.6,0.8c0.2,0.1,0.1-0.1,0.1-0.1c0,0-0.1,0-0.1,0c0.1-0.3,0.2-0.4,0.4-0.5c0.2-0.1-0.2-0.5,0-0.7
		c0.2-0.4,0.7-0.3,1-0.7c-0.3,0-0.1-0.5-0.4-0.3C52.2,48,52.2,48.1,52.1,48.2"/>
	<path class="st0" d="M50.8,50.5c0,0.2-0.3,0.4-0.1,0.5c0.3,0.3,0.5,0.8,1,0.9c-0.1-0.4-0.2-0.7-0.1-1.2
		C51.2,50.8,51,50.6,50.8,50.5"/>
	<path class="st0" d="M61.3,46.7c0.5,0.2,0.3,0.7,0.5,0.8c0.5,0.2,0.6,0.2,0.7,0.7c0,0.1-0.1,0.1-0.1,0.2c0,0.6-0.4,1.2-0.9,1.5
		c-0.1,0-0.1,0.3-0.1,0.4c-0.3,0.3-0.8,0.3-1.2,0.3c0,0.1-0.2,0.2-0.1,0.3c-0.4,0-1.1,0.1-1.2-0.1c-0.4-0.6,0.8-1,1.1-1.6
		c0.4-0.5,0.6-1.1,0.8-1.8c0.1-0.2,0.3-0.5,0.6-0.6c0.3-0.1,0.6,0.1,0.7,0.4c0,0-0.1,0-0.1,0L61.3,46.7"/>
	<path class="st0" d="M61.5,50.8c-0.2-0.1-0.4-0.2-0.5-0.1c-0.2,0.2-0.1,0.5-0.1,0.8c0.3,0.1,0.7-0.1,0.9-0.3c0.1-0.1,0-0.4-0.1-0.5
		c-0.1-0.1-0.3,0.1-0.4,0.1c-0.1,0-0.1-0.1-0.1-0.1L61.5,50.8"/>
	<path class="st0" d="M63.3,48.6c-0.1,0-0.3-0.1-0.3,0c-0.3,0.2-0.1,0.3,0,0.6c0,0.1-0.1,0.1-0.2,0.1c0,0.1,0.1,0.1,0.1,0.1
		c0.4,0.1,0.3-0.2,0.3-0.5c0.1,0,0.2,0,0.2,0C63.4,48.9,63.4,48.8,63.3,48.6C63.3,48.7,63.2,48.7,63.3,48.6
		C63.1,48.6,63.2,48.6,63.3,48.6"/>
	<path class="st0" d="M47.9,49.4c0.4,0.1,0.8,0,1.1,0.2c0.5,0.4,0.8,0.9,0.9,1.5c0.3,1,0.7,2,0.7,3c0,0.2-0.3,0.4-0.3,0.6
		c0,0.7,0.6,1,1.2,1.2c-0.1,0.2,0.1,0.3-0.1,0.4c0,0.1,0.1,0.1,0.1,0.2c0,0.3-0.1,0.5-0.3,0.8c-0.1,0.3,0.1,0.5,0.2,0.8
		c0.1,0.3,0,0.7,0.2,0.9c0.5,0.7,1.2,1.3,2.2,1.5c0.1,0,0.2,0.3,0.1,0.4c-0.6,0.6-1.5,0.1-2.1,0.5c-0.4,0.4-1,0.6-1.5,0.7
		c-0.5,0.1-0.7-0.7-1.2-0.7c-0.6-0.1-1-0.4-1.5-0.5c0,0,0,0,0.1,0c-0.2,0.1-0.4,0.1-0.6,0.1c-0.1-0.1-0.3-0.1-0.4-0.2
		c-0.4-0.3-0.7-0.7-1-1c-0.4-0.2-0.9-0.1-1.4-0.4c-0.3-0.2-0.4-0.5-0.7-0.7c-0.2-0.3-0.2-0.8-0.6-1.1c-0.3-0.2-0.7-0.2-1-0.3
		c-0.1,0-0.1-0.1-0.1-0.2c-0.3,0-0.6-0.2-0.9-0.2c0.1,0,0.1,0,0.1,0c-0.3,0-0.6-0.1-0.8,0.2C40.2,57,40.1,57,40,56.9
		c0.2,0.3-0.1,0.6,0,1c-0.1-0.3,0.2-0.7,0-0.8c-0.5-0.3-0.6-1.1-0.4-1.6c0.1-0.1-0.4-0.3-0.4-0.6c0.1-0.3,0.3-0.6,0.3-1
		c0-0.1,0.1-0.1,0.1-0.1c0.6-0.2,1.1,0.5,1.5,0.2c0.2-0.1,0.1-0.7,0.5-0.7c0.6,0,1.1,0.1,1.6,0.5c0,0,0.3,0.3,0.4,0.1
		c0.1-0.3,0.4-0.3,0.6-0.4c0,0-0.1,0-0.1,0c0.3-0.3,0.8-0.1,1.2-0.2c-0.3-0.7,0.1-1.4-0.1-2.1c0-0.1,0.2-0.1,0.3-0.3
		c0.2-0.4,0.3-0.8,0.4-1.2c0.1-0.3,0.4-0.4,0.6-0.5c0.4-0.3,1.1-0.3,1.5,0.1c0,0,0,0.1,0,0.2L47.9,49.4"/>
	<path class="st0" d="M61.5,53c-0.2-0.1-0.3,0.1-0.4,0.1c0,0.3,0.3,0.7,0.7,0.8c0-0.3,0-0.6,0-0.9c-0.1,0-0.4-0.1-0.5,0.1H61.5"/>
	<path class="st0" d="M72.6,52.4c0,0.8,0.2,1.6-0.1,2.4c-0.1,0.2-0.3,0.6-0.5,0.6c-0.7,0.2-1.5,0.2-2.2,0.4
		c-0.5,0.2-1.1-0.3-1.6-0.1c-0.3,0.1-0.7-0.1-0.9,0.1c-0.2,0.3-0.4,0.5-0.7,0.3c0,0-0.1-0.3,0-0.4c0.3-0.3,0.3-0.7,0.6-1
		c0.4-0.4,0.9-0.7,0.9-1c0-0.3-0.7-0.4-0.9-0.3c-0.6,0.3-1.3,1.1-1,1.8c0.1,0.3,0.3,0.6,0.1,0.9c-0.1,0.1-0.4,0-0.5-0.2
		c-0.2-0.4-0.6-0.5-0.7-0.9c0.1,0.4,0.4,1.2,0.1,1.5c-0.5,0.4-0.8,0.1-0.8-0.2c0.1,0,0.1-0.4,0.2-0.4c0-0.1,0-0.3-0.1-0.4
		c-0.3-0.2-0.7,0-1,0.2c-0.1,0.1-0.5-0.1-0.7,0c-0.4,0.2,0,0.9-0.5,1.1c-0.8,0.3-0.9-0.9-0.7-1.5c0.1-0.2,0.5-0.3,0.6-0.5
		c0.3-0.4,0-0.8,0.1-1.2c0-0.1,0.3,0,0.3-0.2c0-0.3-0.1-0.6-0.1-0.7c-0.1-0.6,0.7-1,1-1.4c0.2-0.2,0.5-0.8,0.6-1.2
		c0-0.1-0.1-0.4,0-0.6c0.2-0.3,0.7,0,1-0.1c0.4-0.2,0.5-0.5,0.6-0.9c0.1-0.5,0.1-1.1-0.2-1.5c-0.2-0.3-0.7-0.6-0.8-0.9
		c-0.1-0.5,0.4-1,0.6-1.5c0-0.2-0.1-0.4-0.1-0.5c-0.5,0.1-0.7-0.4-1-0.5c-0.5-0.2-1.1-0.4-1.5-0.7c-0.5-0.4,0-1.1,0-1.7
		c0.2,0.1,0.2-0.1,0.2-0.1c0.5,0,1,0.1,1.4-0.3c0.1-0.1,0-0.2,0-0.2c0.2-0.3,0.7-0.4,0.8-0.2c0.1,0.1-0.2,0.9-0.3,1
		c0,0.1,0.1,0.1,0.1,0.1c0.2-0.1,0.3,0.2,0.3,0.3c0.3-0.1,0.4,0.2,0.6,0.4c0.6,0.5,0.4-0.8,0.6-1.2c0-0.1,0.2,0,0.3,0
		c-0.1,0-0.2,0-0.2,0c-0.1-0.4,0.3-0.5,0.4-0.8c0.1-0.2-0.1-0.4-0.1-0.6c0-0.1,0.1-0.1,0.2-0.1c0.7,0.5,1.3-0.4,1.8-0.6
		c0.7-0.2,1.3,0.4,1.6,1c-0.1,0-0.1,0.3-0.2,0.2c0,0,0.1,0,0.1,0c0.1,0.4-0.4,0.4-0.6,0.6c-0.1,0.1-0.1,0.2,0,0.2
		c0.1,0.1,0.2,0.1,0.3,0c0.4-0.1,0.6-0.7,1.1-0.6c0.4,0.2,0.7,0.3,1.1,0.2c0.1,0,0.2-0.1,0.2-0.2c0.2,0.3,0.4,0.4,0.5,0.9
		c0.1,0.3,0.6,0.4,0.6,0.6c0.1,0.6,0.6,0.7,0.8,1.2c0.3,0.7,1,1.2,1.4,1.9c0.1,0.1,0.1,0.4,0,0.5c-0.1,0.2-0.4,0.3-0.4,0.5
		c-0.1,0.4-0.5,0.8-0.3,1.2c0.2,0.4,0,0.9,0.1,1.2c0.2,0.8,1.3,0.9,2.1,0.6c0.2,1.2-1.3,1.7-2.3,1.6c0,0.2-0.3,0.2-0.3,0.3
		c-0.3,0.4-0.8,0.2-1.3,0.4c0,0,0,0.1,0,0.2c-0.2,0-0.2,0.1-0.3,0.2c-0.2,0.2,0,0.6-0.1,0.9L72.6,52.4"/>
	<path class="st0" d="M64.4,47.7c-0.1,0-0.2,0.2-0.1,0.3c0.1,0.1,0.2,0.1,0.3,0C64.8,47.8,64.5,47.7,64.4,47.7"/>
	<path class="st0" d="M65,48.3c0-0.1-0.1,0-0.2,0c0,0.1,0.2,0.1,0.1,0.2c-0.1,0.1-0.4,0-0.3,0.2c0.1,0.2,0.5-0.1,0.7,0.1
		c0-0.1,0.1-0.2,0-0.2C65.2,48.5,65.1,48.5,65,48.3"/>
	<path class="st0" d="M74.1,54.8c-0.2-0.2-0.6-0.3-0.6,0.1c0,0.1,0,0.1,0.1,0.1c-0.1,0.1-0.1,0.3,0,0.4c0,0,0.1,0,0.1,0
		c0-0.1,0-0.1,0-0.2c0.1-0.1,0.3-0.2,0.4-0.3C74.3,54.9,74.1,54.9,74.1,54.8"/>
	<path class="st0" d="M66,57c0.3,0,0.5,0,0.8-0.2c0.7-0.5,1.7-1,2.5-0.4c0.6-0.4,1.5,0.2,2.2,0.1c0.5-0.1,1.2-0.6,1.3-1.3
		c0.3,0.6,1,1.4,0.8,2.3c-0.2,0.9-0.4,1.1-0.8,1.9c-0.3,0.5,0.1,1.2,0.9,1.3c0.3,0.1,0.5,0.6,0.4,1c0,0.1-0.3,0.1-0.3,0.3
		c-0.1,0.3,0.1,0.6,0.1,0.9c-0.1,0.3,0,0.7-0.1,1c-0.1,0.3-0.1,0.7-0.3,0.9c-0.5,0.6-1.2,0.9-1.9,1.1c-0.8,0.1-0.5,0.8-1.2,1.1
		c-0.3,0.1-1.2,0.4-1.5,0.3c-0.6-0.2-1.7-0.6-2.1-0.9c-0.2-0.1-0.2-0.3-0.2-0.5c-0.1,0-0.1-0.3-0.3-0.1c-0.1-0.4-0.3-0.8-0.2-1.2
		c0.1-0.2,0.3-0.4,0.1-0.6c-0.2-0.3-0.6-0.5-0.7-0.7c-0.2-0.5-0.1-1.2-0.5-1.3c-0.7-0.1-1.5,0.1-2.3,0.3c-0.9,0.2-1.8,0-2.4-0.5
		c-0.3-0.3-0.1-1.1-0.4-1.4c-0.3-0.2-0.3-0.6-0.3-0.8c-0.1-0.8-0.1-2.1,1-2.2c0,0,0.1-0.2,0.3-0.2c0.9-0.1,1.7-1,2.3-0.2
		c1,0,2.7,0.7,3.2-0.4c0,0-0.1,0-0.1,0L66,57"/>
	<path class="st0" d="M75.8,58.7c0.4,0,0.8,0.1,0.9,0.4c0.1,0.6,0.2,1.3,0,1.9c-0.1,0.2-0.1,0.5-0.2,0.7c-0.4,0.5-1,0.1-1.2-0.4
		c-0.2-0.5-0.2-1.1-0.1-1.7c0-0.1,0.5,0,0.5-0.3c0.1-0.2-0.1-0.4-0.1-0.5c0-0.1,0.2-0.2,0.4-0.2L75.8,58.7"/>
	<path class="st0" d="M40.4,58.6c-0.4,0.5,0.4,0.5,0.4,0.9C40.8,59.1,40.5,58.9,40.4,58.6"/>
	<path class="st0" d="M78.3,47c0,8.8-7.2,16-16,16v-0.8c8.4,0,15.3-6.9,15.3-15.3c0-8.4-6.8-15.3-15.3-15.3V31
		C71.2,31,78.3,38.2,78.3,47 M62.3,63c-8.8,0-16-7.2-16-16c0-8.9,7.2-16,16-16v0.7C53.9,31.7,47,38.6,47,47
		c0,8.4,6.8,15.3,15.3,15.3V63z"/>
	<path class="st0" d="M68.9,47c0,3.6-2.9,6.5-6.5,6.5v-0.6c3.3,0,5.9-2.7,5.9-5.9c0-3.3-2.6-5.9-5.9-5.9v-0.6
		C65.9,40.5,68.9,43.4,68.9,47 M62.3,53.5c-3.6,0-6.5-2.9-6.5-6.5c0-3.6,2.9-6.5,6.5-6.5v0.6c-3.3,0-5.9,2.6-5.9,5.9
		c0,3.2,2.6,5.9,5.9,5.9V53.5z"/>
	<path class="st0" d="M30.4,83.3c0.2,0.2,0.4,0.3,0.7,0.4c0.3,0.1,0.2,0.5,0.1,0.6c-0.1,0.1-0.4,0.1-0.7,0.1c0,0,0,0,0,0L30.4,83.3
		 M30.4,78.8c0.7,0.7,1.6,1.4,2,1.9c0.7,0.8,0.7,0.9,0.7,0.9l-1.5,1.6L30.4,82v-1l1,0.9l0.6-0.7l-1.6-1.5
		C30.4,79.7,30.4,78.8,30.4,78.8z M29.4,82.2c0.5,0.4,0.9,0.8,1,0.9c0,0,0.1,0.1,0.1,0.1v1.1c-0.3-0.1-0.2-0.4-0.4-0.6
		c-0.1-0.1-0.5-0.4-1-0.9v-1.6c0.1-0.2,0.2-0.3,0.2-0.4L29,80.7v-1.1l1.4,1.3v1l-0.5-0.4C29.7,81.8,29.5,82,29.4,82.2z M29,85.5
		c0.3,0.1,0.6-0.2,0.6-0.2l0.3,0.7c0,0-0.1,0.6-0.9,0.6C29,86.6,29,85.5,29,85.5z M29,77.6v1.6l0.4-0.4l1,0.9v-1
		C29.7,78.1,29.1,77.6,29,77.6L29,77.6z M29,82.9L29,82.9c-0.4,0.9-0.2,1.4-0.2,2.1c0,0.4,0.1,0.5,0.2,0.5v1.1c0,0-0.1,0-0.1,0
		c-0.2,0-0.4-0.1-0.5-0.2v-5c0.1,0.1,0.2,0.2,0.4,0.3c0.1-0.1,0.1-0.2,0.2-0.4V82.9z M28.4,78.3l0.6-0.6v1.6l-0.2,0.2l0.2,0.2v1.1
		l-0.6-0.5V78.3z M28.4,86.4c-0.5-0.6-0.6-2.1-0.5-2.7c0.1-0.6,0.3-1,0.4-1.3L27,81.2L26,82.4l1.2,0.4l-0.3,0.7l-2.6-0.6l0.3-0.9
		l0.5-0.1l3.4-3.6v1.9L28.1,80l-0.6,0.6c0.1,0.2,0.5,0.4,0.9,0.8L28.4,86.4L28.4,86.4z"/>
	<rect x="166.3" y="29.7" class="st0" width="3.3" height="43.8"/>
	<path class="st0" d="M193.4,73.9c-4.4,0-8.1-1.6-10.6-4.2c-4.1-4.1-4.4-7.4-4.4-18.1c0-10.6,0.3-14,4.4-18.1
		c2.6-2.6,6.3-4.2,10.6-4.2c7.9,0,13.4,4.9,14.9,12.8h-3.4c-1.3-6.1-5.6-9.8-11.5-9.8c-3.2,0-6,1.1-8.3,3.4
		c-3.1,3.1-3.4,6.7-3.4,15.9c0,9.2,0.2,12.8,3.4,15.9c2.3,2.3,5.1,3.4,8.3,3.4c5.9,0,10.3-3.8,11.6-9.8h3.3
		C206.8,68.9,201.1,73.9,193.4,73.9"/>
	<path class="st0" d="M244.9,73.5l-3.8-10.6h-20.4l-3.8,10.6h-3.6l16.1-43.8h2.9l16.1,43.8H244.9 M221.7,59.9H240l-9.2-25.8
		L221.7,59.9z"/>
	<path class="st0" d="M278.6,69.7c-2.6,2.6-6.3,4.2-10.6,4.2c-4.4,0-8.1-1.6-10.6-4.2c-4.1-4.1-4.4-7.4-4.4-18.1
		c0-10.6,0.3-14,4.4-18.1c2.6-2.6,6.3-4.2,10.6-4.2c4.4,0,8.1,1.6,10.6,4.2c4.1,4.1,4.4,7.4,4.4,18.1
		C283,62.2,282.7,65.6,278.6,69.7 M276.3,35.7c-2.3-2.3-5.1-3.4-8.3-3.4c-3.2,0-6,1.1-8.3,3.4c-3.1,3.1-3.4,6.7-3.4,15.9
		c0,9.2,0.2,12.8,3.4,15.9c2.3,2.3,5.1,3.4,8.3,3.4c3.2,0,6-1.1,8.3-3.4c3.1-3.1,3.4-6.7,3.4-15.9C279.7,42.4,279.4,38.8,276.3,35.7
		z"/>
	<line class="st1" x1="145.5" y1="19.1" x2="145.5" y2="84.2"/>
	<line class="st2" x1="145.5" y1="19.1" x2="145.5" y2="84.2"/>
</g>
</svg>
